<svg width="159" height="38" viewBox="0 0 159 38" fill="none" xmlns="http://www.w3.org/2000/svg">
  <path d="M19 0C8.5066 0 0 8.5066 0 19C0 29.4934 8.5066 38 19 38C29.4934 38 38 29.4934 38 19C38 8.5066 29.4934 0 19 0Z" fill="#58CC02"/>
  <path d="M19 6.5C15.9624 6.5 13.5 8.96243 13.5 12C13.5 15.0376 15.9624 17.5 19 17.5C22.0376 17.5 24.5 15.0376 24.5 12C24.5 8.96243 22.0376 6.5 19 6.5Z" fill="white"/>
  <path d="M19 20.5C15.9624 20.5 13.5 22.9624 13.5 26C13.5 29.0376 15.9624 31.5 19 31.5C22.0376 31.5 24.5 29.0376 24.5 26C24.5 22.9624 22.0376 20.5 19 20.5Z" fill="white"/>
  <path d="M52.5 27V11H56.5V27H52.5Z" fill="#4B4B4B"/>
  <path d="M60.5 27V11H64.5L70.5 21.5V11H74.5V27H70.5L64.5 16.5V27H60.5Z" fill="#4B4B4B"/>
  <path d="M78.5 27V11H82.5L88.5 21.5V11H92.5V27H88.5L82.5 16.5V27H78.5Z" fill="#4B4B4B"/>
  <path d="M96.5 27V11H100.5L106.5 21.5V11H110.5V27H106.5L100.5 16.5V27H96.5Z" fill="#4B4B4B"/>
  <path d="M114.5 27V11H118.5V27H114.5Z" fill="#4B4B4B"/>
  <path d="M122.5 27V11H126.5L132.5 21.5V11H136.5V27H132.5L126.5 16.5V27H122.5Z" fill="#4B4B4B"/>
  <path d="M140.5 27V11H144.5L150.5 21.5V11H154.5V27H150.5L144.5 16.5V27H140.5Z" fill="#4B4B4B"/>
</svg> 